
<?xml version="1.0" encoding="iso-8859-1"?>
<!-- Generator: Adobe Illustrator 19.0.0, SVG Export Plug-In . SVG Version: 6.00 Build 0)  -->
<svg version="1.1" id="Layer_1" xmlns="http://www.w3.org/2000/svg" xmlns:xlink="http://www.w3.org/1999/xlink" x="0px" y="0px"
	 viewBox="0 0 512 512" style="enable-background:new 0 0 512 512;" xml:space="preserve">
<polygon style="fill:#3CBDE8;" points="227.089,392.818 221.795,503.983 290.205,503.983 284.911,392.818 "/>
<polygon style="fill:#2C9DD4;" points="284.911,392.818 227.089,392.818 225.053,435.574 286.947,435.574 "/>
<path style="fill:#D9DDE2;" d="M469.779,409.921H42.221c-18.891,0-34.205-15.314-34.205-34.205V42.221
	c0-18.891,15.314-34.205,34.205-34.205h427.557c18.891,0,34.205,15.314,34.205,34.205v333.495
	C503.983,394.607,488.669,409.921,469.779,409.921z"/>
<g>
	<path style="fill:#3CBDE8;" d="M8.017,358.614v17.102c0,18.891,15.314,34.205,34.205,34.205h427.557
		c18.891,0,34.205-15.314,34.205-34.205v-17.102H8.017z"/>
	<path style="fill:#3CBDE8;" d="M503.983,42.221c0-18.891-15.314-34.205-34.205-34.205H42.221
		c-18.891,0-34.205,15.314-34.205,34.205v17.102h495.967V42.221z"/>
</g>
<path style="fill:#C7CCD4;" d="M33.67,375.716V42.221c0-18.891,15.314-34.205,34.205-34.205H42.221
	c-18.891,0-34.205,15.314-34.205,34.205v333.495c0,18.891,15.314,34.205,34.205,34.205h25.653
	C48.984,409.921,33.67,394.607,33.67,375.716z"/>
<g>
	<path style="fill:#2C9DD4;" d="M33.67,375.716v-17.102H8.017v17.102c0,18.891,15.314,34.205,34.205,34.205h25.653
		C48.984,409.921,33.67,394.607,33.67,375.716z"/>
	<path style="fill:#2C9DD4;" d="M67.875,8.017H42.221c-18.891,0-34.205,15.314-34.205,34.205v17.102H33.67V42.221
		C33.67,23.331,48.984,8.017,67.875,8.017z"/>
</g>
<path style="fill:#F7C14D;" d="M365.309,330.823H146.691c-26.866,0-43.244-29.551-29.006-52.333l109.309-174.895
	c13.396-21.435,44.615-21.435,58.011,0L394.315,278.49C408.554,301.272,392.175,330.823,365.309,330.823z"/>
<path style="fill:#FFDB66;" d="M146.691,313.72c-9.093,0-13.491-6.162-14.958-8.812c-1.469-2.65-4.364-9.644,0.455-17.355
	l109.309-174.896c4.534-7.255,11.652-8.038,14.503-8.038s9.969,0.784,14.503,8.038l109.309,174.896
	c4.82,7.711,1.924,14.705,0.455,17.355c-1.469,2.65-5.865,8.812-14.958,8.812L146.691,313.72L146.691,313.72z"/>
<g>
	<circle style="fill:#DB6B5E;" cx="256" cy="279.516" r="17.102"/>
	<path style="fill:#DB6B5E;" d="M256,132.008c-9.446,0-17.102,7.656-17.102,17.102v85.511h34.205v-85.511
		C273.102,139.665,265.446,132.008,256,132.008z"/>
</g>
<path d="M469.779,0H42.221C18.941,0,0,18.941,0,42.221v333.495c0,23.28,18.941,42.221,42.221,42.221h175.646l-3.715,78.029H179.04
	c-4.427,0-8.017,3.589-8.017,8.017c0,4.427,3.589,8.017,8.017,8.017H332.96c4.427,0,8.017-3.589,8.017-8.017
	c0-4.427-3.589-8.017-8.017-8.017h-35.111l-3.715-78.029h175.645c23.28,0,42.221-18.941,42.221-42.221V144.835
	c0-4.427-3.589-8.017-8.017-8.017c-4.427,0-8.017,3.589-8.017,8.017v205.762H16.033V67.34h479.933v34.739
	c0,4.427,3.589,8.017,8.017,8.017c4.427,0,8.017-3.589,8.017-8.017V42.221C512,18.941,493.059,0,469.779,0z M281.797,495.967
	h-51.594l3.715-78.029h44.162L281.797,495.967z M495.967,366.63v9.086c0,14.44-11.748,26.188-26.188,26.188H42.221
	c-14.44,0-26.188-11.748-26.188-26.188v-9.086H495.967z M16.033,51.307v-9.086c0-14.44,11.748-26.188,26.188-26.188h427.557
	c14.44,0,26.188,11.748,26.188,26.188v9.086H16.033z"/>
<path d="M247.449,392.284h17.102c4.427,0,8.017-3.589,8.017-8.017c0-4.427-3.589-8.017-8.017-8.017h-17.102
	c-4.427,0-8.017,3.589-8.017,8.017C239.432,388.695,243.021,392.284,247.449,392.284z"/>
<path d="M185.838,184.571c2.346-3.755,1.205-8.701-2.549-11.047c-3.755-2.347-8.701-1.206-11.047,2.549l-61.354,98.167
	c-8.254,13.206-8.675,29.224-1.126,42.844c7.55,13.622,21.355,21.754,36.929,21.754h218.619c15.574,0,29.379-8.132,36.928-21.754
	c7.55-13.621,7.128-29.638-1.126-42.844L291.804,99.345c-7.766-12.426-21.15-19.844-35.804-19.844
	c-14.653,0-28.037,7.418-35.804,19.844l-25.775,41.24c-2.346,3.755-1.205,8.701,2.549,11.047c3.756,2.348,8.702,1.205,11.047-2.549
	l25.775-41.24c4.816-7.707,13.119-12.308,22.207-12.308s17.391,4.602,22.207,12.308l109.309,174.896
	c5.12,8.191,5.381,18.126,0.698,26.574c-4.683,8.45-13.246,13.494-22.905,13.494H146.691c-9.66,0-18.223-5.044-22.905-13.494
	c-4.683-8.449-4.422-18.383,0.698-26.574L185.838,184.571z"/>
<path d="M256,304.635c13.851,0,25.119-11.268,25.119-25.119c0-13.851-11.268-25.119-25.119-25.119s-25.119,11.268-25.119,25.119
	C230.881,293.366,242.149,304.635,256,304.635z M256,270.43c5.01,0,9.086,4.076,9.086,9.086s-4.076,9.086-9.086,9.086
	c-5.01,0-9.086-4.076-9.086-9.086S250.99,270.43,256,270.43z"/>
<path d="M273.102,242.639c4.427,0,8.017-3.589,8.017-8.017v-85.511c0-13.851-11.268-25.119-25.119-25.119
	c-13.851,0-25.119,11.268-25.119,25.119v85.511c0,4.427,3.589,8.017,8.017,8.017H273.102z M246.914,149.111
	c0-5.01,4.076-9.086,9.086-9.086c5.01,0,9.086,4.076,9.086,9.086v77.495h-18.171V149.111z"/>
<g>
</g>
<g>
</g>
<g>
</g>
<g>
</g>
<g>
</g>
<g>
</g>
<g>
</g>
<g>
</g>
<g>
</g>
<g>
</g>
<g>
</g>
<g>
</g>
<g>
</g>
<g>
</g>
<g>
</g>
</svg>


